<mxfile host="65bd71144e">
    <diagram id="TIV_Y_mdN8S8PWF-lbd9" name="User Use Cases">
        <mxGraphModel dx="705" dy="607" grid="1" gridSize="10" guides="1" tooltips="1" connect="1" arrows="1" fold="1" page="1" pageScale="1" pageWidth="1100" pageHeight="850" background="none" math="0" shadow="0">
            <root>
                <mxCell id="0"/>
                <mxCell id="1" parent="0"/>
                <mxCell id="2" value="News Aggregation System - User Use Cases" style="text;html=1;strokeColor=none;fillColor=none;align=center;verticalAlign=middle;whiteSpace=wrap;rounded=0;fontSize=16;fontStyle=1" parent="1" vertex="1">
                    <mxGeometry x="350" y="20" width="400" height="30" as="geometry"/>
                </mxCell>
                <mxCell id="3" value="" style="rounded=0;whiteSpace=wrap;html=1;fillColor=#f5f5f5;strokeColor=#666666;fontColor=#333333;" parent="1" vertex="1">
                    <mxGeometry x="1160" y="60" width="210" height="230" as="geometry"/>
                </mxCell>
                <mxCell id="4" value="Legend" style="text;html=1;strokeColor=none;fillColor=none;align=center;verticalAlign=middle;whiteSpace=wrap;rounded=0;fontSize=14;fontStyle=1" parent="1" vertex="1">
                    <mxGeometry x="1160" y="65" width="210" height="30" as="geometry"/>
                </mxCell>
                <mxCell id="5" value="" style="ellipse;whiteSpace=wrap;html=1;fillColor=#dae8fc;strokeColor=#6c8ebf;" parent="1" vertex="1">
                    <mxGeometry x="1170" y="100" width="40" height="20" as="geometry"/>
                </mxCell>
                <mxCell id="6" value="Authentication" style="text;html=1;strokeColor=none;fillColor=none;align=left;verticalAlign=middle;whiteSpace=wrap;rounded=0;" parent="1" vertex="1">
                    <mxGeometry x="1220" y="100" width="130" height="20" as="geometry"/>
                </mxCell>
                <mxCell id="7" value="" style="ellipse;whiteSpace=wrap;html=1;fillColor=#d5e8d4;strokeColor=#82b366;" parent="1" vertex="1">
                    <mxGeometry x="1170" y="130" width="40" height="20" as="geometry"/>
                </mxCell>
                <mxCell id="8" value="Content Features" style="text;html=1;strokeColor=none;fillColor=none;align=left;verticalAlign=middle;whiteSpace=wrap;rounded=0;" parent="1" vertex="1">
                    <mxGeometry x="1220" y="130" width="130" height="20" as="geometry"/>
                </mxCell>
                <mxCell id="9" value="" style="ellipse;whiteSpace=wrap;html=1;fillColor=#ffe6cc;strokeColor=#d79b00;" parent="1" vertex="1">
                    <mxGeometry x="1170" y="160" width="40" height="20" as="geometry"/>
                </mxCell>
                <mxCell id="10" value="Notification Features" style="text;html=1;strokeColor=none;fillColor=none;align=left;verticalAlign=middle;whiteSpace=wrap;rounded=0;" parent="1" vertex="1">
                    <mxGeometry x="1220" y="160" width="130" height="20" as="geometry"/>
                </mxCell>
                <mxCell id="11" value="" style="ellipse;whiteSpace=wrap;html=1;fillColor=#e1d5e7;strokeColor=#9673a6;" parent="1" vertex="1">
                    <mxGeometry x="1170" y="190" width="40" height="20" as="geometry"/>
                </mxCell>
                <mxCell id="12" value="Search Features" style="text;html=1;strokeColor=none;fillColor=none;align=left;verticalAlign=middle;whiteSpace=wrap;rounded=0;" parent="1" vertex="1">
                    <mxGeometry x="1220" y="190" width="130" height="20" as="geometry"/>
                </mxCell>
                <mxCell id="13" value="" style="ellipse;whiteSpace=wrap;html=1;fillColor=#f8cecc;strokeColor=#b85450;" parent="1" vertex="1">
                    <mxGeometry x="1170" y="220" width="40" height="20" as="geometry"/>
                </mxCell>
                <mxCell id="14" value="Auth Gateway" style="text;html=1;strokeColor=none;fillColor=none;align=left;verticalAlign=middle;whiteSpace=wrap;rounded=0;" parent="1" vertex="1">
                    <mxGeometry x="1220" y="220" width="130" height="20" as="geometry"/>
                </mxCell>
                <mxCell id="20" value="User" style="shape=umlActor;verticalLabelPosition=bottom;verticalAlign=top;html=1;outlineConnect=0;" parent="1" vertex="1">
                    <mxGeometry x="100" y="400" width="40" height="80" as="geometry"/>
                </mxCell>
                <mxCell id="30" value="News Aggregation System" style="shape=rect;html=1;verticalAlign=top;fontStyle=1;whiteSpace=wrap;align=center;fillColor=none;strokeWidth=1;container=1;" parent="1" vertex="1">
                    <mxGeometry x="200" y="60" width="930" height="730" as="geometry"/>
                </mxCell>
                <mxCell id="110" value="" style="shape=rect;html=1;verticalAlign=top;fontStyle=1;whiteSpace=wrap;align=center;fillColor=none;strokeColor=#36393d;container=1;dashed=1;" parent="30" vertex="1">
                    <mxGeometry x="20.296666666666667" y="10" width="361.6666666666667" height="190" as="geometry"/>
                </mxCell>
                <mxCell id="31" value="Authentication Features" style="text;html=1;strokeColor=none;fillColor=none;align=left;verticalAlign=middle;whiteSpace=wrap;rounded=0;fontSize=14;fontStyle=1" parent="110" vertex="1">
                    <mxGeometry x="20.66333333333334" width="175.66666666666669" height="20" as="geometry"/>
                </mxCell>
                <mxCell id="32" value="Register" style="ellipse;whiteSpace=wrap;html=1;fillColor=#dae8fc;strokeColor=#6c8ebf;" parent="110" vertex="1">
                    <mxGeometry x="20.666666666666668" y="30" width="124.00000000000001" height="40" as="geometry"/>
                </mxCell>
                <mxCell id="33" value="&lt;span style=&quot;color: rgb(0, 0, 0);&quot;&gt;Login&lt;/span&gt;" style="ellipse;whiteSpace=wrap;html=1;fillColor=#dae8fc;strokeColor=#6c8ebf;" parent="110" vertex="1">
                    <mxGeometry x="20.666666666666668" y="100" width="124.00000000000001" height="40" as="geometry"/>
                </mxCell>
                <mxCell id="150" value="Logout" style="ellipse;whiteSpace=wrap;html=1;fillColor=#dae8fc;strokeColor=#6c8ebf;" parent="110" vertex="1">
                    <mxGeometry x="227.33" y="140" width="124" height="40" as="geometry"/>
                </mxCell>
                <mxCell id="34" value="&lt;span style=&quot;color: rgb(0, 0, 0);&quot;&gt;Validate User Input&lt;/span&gt;" style="ellipse;whiteSpace=wrap;html=1;fillColor=#dae8fc;strokeColor=#6c8ebf;" parent="110" vertex="1">
                    <mxGeometry x="227.33333333333334" y="30" width="124.00000000000001" height="40" as="geometry"/>
                </mxCell>
                <mxCell id="35" value="Authentication" style="ellipse;whiteSpace=wrap;html=1;fillColor=#dae8fc;strokeColor=#6c8ebf;" parent="110" vertex="1">
                    <mxGeometry x="227.33333333333334" y="90" width="124.00000000000001" height="40" as="geometry"/>
                </mxCell>
                <mxCell id="36" value="&lt;font style=&quot;font-size: 10px;&quot;&gt;&amp;lt;&amp;lt;include&amp;gt;&amp;gt;&lt;/font&gt;" style="endArrow=open;endSize=12;dashed=1;html=1;fontSize=10;exitX=1;exitY=0.5;exitDx=0;exitDy=0;entryX=0;entryY=0.5;entryDx=0;entryDy=0;" parent="110" source="32" target="34" edge="1">
                    <mxGeometry width="160" relative="1" as="geometry"/>
                </mxCell>
                <mxCell id="37" value="&lt;font style=&quot;font-size: 10px;&quot;&gt;&amp;lt;&amp;lt;include&amp;gt;&amp;gt;&lt;/font&gt;" style="endArrow=open;endSize=12;dashed=1;html=1;fontSize=10;exitX=1;exitY=0.5;exitDx=0;exitDy=0;entryX=0;entryY=0.5;entryDx=0;entryDy=0;" parent="110" source="33" target="35" edge="1">
                    <mxGeometry width="160" relative="1" as="geometry"/>
                </mxCell>
                <mxCell id="151" value="&lt;font style=&quot;font-size: 10px;&quot;&gt;&amp;lt;&amp;lt;enable&amp;gt;&amp;gt;&lt;/font&gt;" style="endArrow=open;endSize=12;dashed=1;html=1;fontSize=10;exitX=1;exitY=0.5;exitDx=0;exitDy=0;entryX=0;entryY=0.5;entryDx=0;entryDy=0;" parent="110" source="33" target="150" edge="1">
                    <mxGeometry width="160" relative="1" as="geometry"/>
                </mxCell>
                <mxCell id="111" value="&lt;div&gt;&lt;br&gt;&lt;/div&gt;&lt;div&gt;&lt;br&gt;&lt;/div&gt;" style="shape=rect;html=1;verticalAlign=top;fontStyle=1;whiteSpace=wrap;align=center;fillColor=none;strokeColor=#36393d;container=1;dashed=1;" parent="30" vertex="1">
                    <mxGeometry x="20.3" y="210" width="879.33" height="510" as="geometry"/>
                </mxCell>
                <mxCell id="40" value="Content Features" style="text;html=1;strokeColor=none;fillColor=none;align=left;verticalAlign=middle;whiteSpace=wrap;rounded=0;fontSize=14;fontStyle=1" parent="111" vertex="1">
                    <mxGeometry x="21.031" width="249.14350000000002" height="20" as="geometry"/>
                </mxCell>
                <mxCell id="90" value="User can filter headlines &#xa;by category or date range" style="shape=callout;whiteSpace=wrap;html=1;perimeter=calloutPerimeter;size=30;position=0;base=10;fillColor=#fff2cc;strokeColor=#d6b656;align=center;position2=0;rotation=0;" parent="111" vertex="1">
                    <mxGeometry x="379.7106818181818" y="20" width="161.21050000000002" height="90" as="geometry"/>
                </mxCell>
                <mxCell id="60" value="&lt;font style=&quot;font-size: 14px;&quot;&gt;Search Features&lt;/font&gt;" style="text;html=1;strokeColor=none;fillColor=none;align=left;verticalAlign=middle;whiteSpace=wrap;rounded=0;fontSize:14;fontStyle=1" parent="111" vertex="1">
                    <mxGeometry x="21.031" y="210" width="249.14350000000002" height="20" as="geometry"/>
                </mxCell>
                <mxCell id="70" value="Notification Features" style="text;html=1;strokeColor=none;fillColor=none;align=left;verticalAlign=middle;whiteSpace=wrap;rounded=0;fontSize=14;fontStyle=1" parent="111" vertex="1">
                    <mxGeometry x="21.031" y="339" width="249.14350000000002" height="20" as="geometry"/>
                </mxCell>
                <mxCell id="91" value="System automatically marks&#xa;notifications as read when viewed" style="shape=callout;whiteSpace=wrap;html=1;perimeter=calloutPerimeter;size=20;position=0.58;base=20;fillColor=#fff2cc;strokeColor=#d6b656;align=center;" parent="111" vertex="1">
                    <mxGeometry x="379.7140126136364" y="430" width="249.14350000000002" height="60" as="geometry"/>
                </mxCell>
                <mxCell id="92" value="User configures email&#xa;notifications for keywords&#xa;or categories of interest" style="shape=callout;whiteSpace=wrap;html=1;perimeter=calloutPerimeter;position2=0.21;size=30;position=0.21;base=11;fillColor=#fff2cc;strokeColor=#d6b656;align=center;" parent="111" vertex="1">
                    <mxGeometry x="379.71401261363644" y="210" width="205.17700000000002" height="90" as="geometry"/>
                </mxCell>
                <mxCell id="82" value="Send Email Notifications" style="text;html=1;strokeColor=none;fillColor=none;align=center;verticalAlign=middle;whiteSpace=wrap;rounded=0;fontSize=10;" parent="111" vertex="1">
                    <mxGeometry x="507.69666666666666" y="359" width="134.33333333333334" height="20" as="geometry"/>
                </mxCell>
                <mxCell id="48" value="View Article Details" style="ellipse;whiteSpace=wrap;html=1;fillColor=#d5e8d4;strokeColor=#82b366;" parent="111" vertex="1">
                    <mxGeometry x="228.99999999999991" y="40" width="124.00000000000001" height="40" as="geometry"/>
                </mxCell>
                <mxCell id="44" value="Filter by Category" style="ellipse;whiteSpace=wrap;html=1;fillColor=#d5e8d4;strokeColor=#82b366;" parent="111" vertex="1">
                    <mxGeometry x="229" y="90" width="124.00000000000001" height="40" as="geometry"/>
                </mxCell>
                <mxCell id="45" value="Filter by Date Range" style="ellipse;whiteSpace=wrap;html=1;fillColor=#E6E6E6;strokeColor=light-dark(#767f71, #446e2c);" parent="111" vertex="1">
                    <mxGeometry x="229" y="140" width="124.00000000000001" height="40" as="geometry"/>
                </mxCell>
                <mxCell id="63" value="Sort by Relevance" style="ellipse;whiteSpace=wrap;html=1;fillColor=#e1d5e7;strokeColor=#9673a6;" parent="111" vertex="1">
                    <mxGeometry x="229.00000000000003" y="220" width="124.00000000000001" height="40" as="geometry"/>
                </mxCell>
                <mxCell id="136" value="Sort by Like/Dislike" style="ellipse;whiteSpace=wrap;html=1;fillColor=#e1d5e7;strokeColor=#9673a6;" parent="111" vertex="1">
                    <mxGeometry x="229.00000000000003" y="275" width="124.00000000000001" height="40" as="geometry"/>
                </mxCell>
                <mxCell id="61" value="Search Articles" style="ellipse;whiteSpace=wrap;html=1;fillColor=#e1d5e7;strokeColor=#9673a6;" parent="111" vertex="1">
                    <mxGeometry x="21.033333333333324" y="250" width="124.00000000000001" height="40" as="geometry"/>
                </mxCell>
                <mxCell id="64" value="&lt;font style=&quot;font-size: 10px;&quot;&gt;&amp;lt;&amp;lt;extend&amp;gt;&amp;gt;&lt;/font&gt;" style="endArrow=open;endSize=12;dashed=1;html=1;fontSize=10;exitX=0;exitY=0.5;exitDx=0;exitDy=0;entryX=1;entryY=0.5;entryDx=0;entryDy=0;" parent="111" source="45" target="61" edge="1">
                    <mxGeometry width="160" relative="1" as="geometry"/>
                </mxCell>
                <mxCell id="65" value="&lt;font style=&quot;font-size: 10px;&quot;&gt;&amp;lt;&amp;lt;extend&amp;gt;&amp;gt;&lt;/font&gt;" style="endArrow=open;endSize=12;dashed=1;html=1;fontSize=10;exitX=0;exitY=0.5;exitDx=0;exitDy=0;entryX=1;entryY=0.5;entryDx=0;entryDy=0;" parent="111" source="63" target="61" edge="1">
                    <mxGeometry width="160" relative="1" as="geometry"/>
                </mxCell>
                <mxCell id="139" value="&lt;font style=&quot;font-size: 10px;&quot;&gt;&amp;lt;&amp;lt;extend&amp;gt;&amp;gt;&lt;/font&gt;" style="endArrow=open;endSize=12;dashed=1;html=1;fontSize=10;exitX=0;exitY=0.5;exitDx=0;exitDy=0;entryX=1;entryY=0.5;entryDx=0;entryDy=0;" parent="111" source="136" target="61" edge="1">
                    <mxGeometry width="160" relative="1" as="geometry">
                        <mxPoint x="238.7" y="210" as="sourcePoint"/>
                        <mxPoint x="154.7" y="240" as="targetPoint"/>
                    </mxGeometry>
                </mxCell>
                <mxCell id="77" value="Mark as Read" style="ellipse;whiteSpace=wrap;html=1;fillColor=#ffe6cc;strokeColor=#d79b00;" parent="111" vertex="1">
                    <mxGeometry x="229.00000000000003" y="460" width="124.00000000000001" height="40" as="geometry"/>
                </mxCell>
                <mxCell id="74" value="Subscribe to Categories" style="ellipse;whiteSpace=wrap;html=1;fillColor=#ffe6cc;strokeColor=#d79b00;" parent="111" vertex="1">
                    <mxGeometry x="229.00000000000003" y="400" width="124.00000000000001" height="40" as="geometry"/>
                </mxCell>
                <mxCell id="73" value="Subscribe to Keywords" style="ellipse;whiteSpace=wrap;html=1;fillColor=#ffe6cc;strokeColor=#d79b00;" parent="111" vertex="1">
                    <mxGeometry x="229.00000000000003" y="350" width="124.00000000000001" height="40" as="geometry"/>
                </mxCell>
                <mxCell id="72" value="View Notifications" style="ellipse;whiteSpace=wrap;html=1;fillColor=#ffe6cc;strokeColor=#d79b00;" parent="111" vertex="1">
                    <mxGeometry x="29.313333333333325" y="450" width="124.00000000000001" height="40" as="geometry"/>
                </mxCell>
                <mxCell id="78" value="&lt;font style=&quot;font-size: 10px;&quot;&gt;&amp;lt;&amp;lt;include&amp;gt;&amp;gt;&lt;/font&gt;" style="endArrow=open;endSize=12;dashed=1;html=1;fontSize=10;exitX=1;exitY=0.7;exitDx=0;exitDy=0;entryX=0;entryY=0.5;entryDx=0;entryDy=0;" parent="111" source="72" target="77" edge="1">
                    <mxGeometry width="160" relative="1" as="geometry"/>
                </mxCell>
                <mxCell id="71" value="Configure Notifications" style="ellipse;whiteSpace=wrap;html=1;fillColor=#ffe6cc;strokeColor=#d79b00;" parent="111" vertex="1">
                    <mxGeometry x="29.313333333333325" y="380" width="124.00000000000001" height="40" as="geometry"/>
                </mxCell>
                <mxCell id="75" value="&lt;font style=&quot;font-size: 10px;&quot;&gt;&amp;lt;&amp;lt;extend&amp;gt;&amp;gt;&lt;/font&gt;" style="endArrow=open;endSize=12;dashed=1;html=1;fontSize=10;exitX=0;exitY=0.5;exitDx=0;exitDy=0;entryX=1;entryY=0.5;entryDx=0;entryDy=0;" parent="111" source="73" target="71" edge="1">
                    <mxGeometry width="160" relative="1" as="geometry">
                        <mxPoint x="149.7" y="350" as="targetPoint"/>
                    </mxGeometry>
                </mxCell>
                <mxCell id="76" value="&lt;font style=&quot;font-size: 10px;&quot;&gt;&amp;lt;&amp;lt;extend&amp;gt;&amp;gt;&lt;/font&gt;" style="endArrow=open;endSize=12;dashed=1;html=1;fontSize=10;exitX=0;exitY=0.5;exitDx=0;exitDy=0;entryX=0.965;entryY=0.661;entryDx=0;entryDy=0;entryPerimeter=0;" parent="111" source="74" target="71" edge="1">
                    <mxGeometry width="160" relative="1" as="geometry">
                        <mxPoint x="227.7" y="450" as="targetPoint"/>
                    </mxGeometry>
                </mxCell>
                <mxCell id="41" value="Browse Headlines" style="ellipse;whiteSpace=wrap;html=1;fillColor=#d5e8d4;strokeColor=#82b366;" parent="30" vertex="1">
                    <mxGeometry x="41.333333333333336" y="240" width="124.00000000000001" height="40" as="geometry"/>
                </mxCell>
                <mxCell id="42" value="Save/Unsave Articles" style="ellipse;whiteSpace=wrap;html=1;fillColor=#d5e8d4;strokeColor=#82b366;" parent="30" vertex="1">
                    <mxGeometry x="41.333333333333336" y="290" width="124.00000000000001" height="40" as="geometry"/>
                </mxCell>
                <mxCell id="43" value="Like/Dislike Articles" style="ellipse;whiteSpace=wrap;html=1;fillColor=#d5e8d4;strokeColor=#82b366;" parent="30" vertex="1">
                    <mxGeometry x="41.333333333333336" y="340" width="124.00000000000001" height="40" as="geometry"/>
                </mxCell>
                <mxCell id="46" value="&lt;font style=&quot;font-size: 10px;&quot;&gt;&amp;lt;&amp;lt;extend&amp;gt;&amp;gt;&lt;/font&gt;" style="endArrow=open;endSize=12;dashed=1;html=1;fontSize=10;exitX=0;exitY=0.5;exitDx=0;exitDy=0;entryX=1;entryY=0.5;entryDx=0;entryDy=0;" parent="30" source="44" target="41" edge="1">
                    <mxGeometry width="160" relative="1" as="geometry"/>
                </mxCell>
                <mxCell id="47" value="&lt;font style=&quot;font-size: 10px;&quot;&gt;&amp;lt;&amp;lt;extend&amp;gt;&amp;gt;&lt;/font&gt;" style="endArrow=open;endSize=12;dashed=1;html=1;fontSize=10;exitX=0;exitY=0.5;exitDx=0;exitDy=0;entryX=1;entryY=0.5;entryDx=0;entryDy=0;" parent="30" source="45" target="41" edge="1">
                    <mxGeometry width="160" relative="1" as="geometry"/>
                </mxCell>
                <mxCell id="49" value="&lt;font style=&quot;font-size: 10px;&quot;&gt;&amp;lt;&amp;lt;include&amp;gt;&amp;gt;&lt;/font&gt;" style="endArrow=open;endSize=12;dashed=1;html=1;fontSize=10;exitX=1;exitY=0.5;exitDx=0;exitDy=0;entryX=0;entryY=0.5;entryDx=0;entryDy=0;" parent="30" source="41" target="48" edge="1">
                    <mxGeometry width="160" relative="1" as="geometry"/>
                </mxCell>
                <mxCell id="50" value="Public access features: Login and Register&lt;br&gt;All other features require auth" style="shape=note;strokeWidth=1;fontSize=12;size=15;whiteSpace=wrap;html=1;fillColor=#fff2cc;strokeColor=#d6b656;fontColor=#666600;align=left;spacing=3;" parent="30" vertex="1">
                    <mxGeometry x="392.6666666666667" y="30" width="206.66666666666669" height="70" as="geometry"/>
                </mxCell>
                <mxCell id="122" value="Authenticate" style="ellipse;whiteSpace=wrap;html=1;fillColor=#f8cecc;strokeColor=#b85450;fontStyle=1" parent="30" vertex="1">
                    <mxGeometry x="619.9966666666668" y="110" width="124.00000000000001" height="40" as="geometry"/>
                </mxCell>
                <mxCell id="124" value="Authorize" style="ellipse;whiteSpace=wrap;html=1;fillColor=#f8cecc;strokeColor=#b85450;fontStyle=1" parent="30" vertex="1">
                    <mxGeometry x="760.0033333333333" y="110" width="122.62566666666667" height="40" as="geometry"/>
                </mxCell>
                <mxCell id="128" value="&lt;font style=&quot;font-size: 10px;&quot;&gt;&amp;lt;&amp;lt;include&amp;gt;&amp;gt;&lt;/font&gt;" style="endArrow=open;endSize=12;dashed=1;html=1;fontSize=10;exitX=0.75;exitY=0;exitDx=0;exitDy=0;entryX=0.5;entryY=1;entryDx=0;entryDy=0;" parent="30" source="111" target="122" edge="1">
                    <mxGeometry width="160" relative="1" as="geometry">
                        <mxPoint x="175.66666666666669" y="90" as="sourcePoint"/>
                        <mxPoint x="258.33333333333337" y="90" as="targetPoint"/>
                    </mxGeometry>
                </mxCell>
                <mxCell id="131" value="&lt;font style=&quot;font-size: 10px;&quot;&gt;&amp;lt;&amp;lt;include&amp;gt;&amp;gt;&lt;/font&gt;" style="endArrow=open;endSize=12;dashed=1;html=1;fontSize=10;entryX=0.5;entryY=1;entryDx=0;entryDy=0;" parent="30" target="124" edge="1">
                    <mxGeometry width="160" relative="1" as="geometry">
                        <mxPoint x="820" y="210" as="sourcePoint"/>
                        <mxPoint x="820" y="160" as="targetPoint"/>
                    </mxGeometry>
                </mxCell>
                <mxCell id="134" value="" style="endArrow=open;endSize=12;dashed=1;html=1;fontSize=10;exitX=1;exitY=0.5;exitDx=0;exitDy=0;entryX=1;entryY=0.5;entryDx=0;entryDy=0;" parent="30" source="41" target="41" edge="1">
                    <mxGeometry width="160" relative="1" as="geometry">
                        <mxPoint x="365" y="290" as="sourcePoint"/>
                        <mxPoint x="740" y="390" as="targetPoint"/>
                    </mxGeometry>
                </mxCell>
                <mxCell id="100" value="" style="endArrow=none;html=1;entryX=0;entryY=0.5;entryDx=0;entryDy=0;exitX=1;exitY=0.3333333333333333;exitDx=0;exitDy=0;exitPerimeter=0;" parent="1" source="20" target="32" edge="1">
                    <mxGeometry width="50" height="50" relative="1" as="geometry"/>
                </mxCell>
                <mxCell id="101" value="" style="endArrow=none;html=1;entryX=0;entryY=0.5;entryDx=0;entryDy=0;exitX=1;exitY=0.3333333333333333;exitDx=0;exitDy=0;exitPerimeter=0;" parent="1" source="20" target="33" edge="1">
                    <mxGeometry width="50" height="50" relative="1" as="geometry"/>
                </mxCell>
                <mxCell id="102" value="" style="endArrow=none;html=1;entryX=0;entryY=0.5;entryDx=0;entryDy=0;exitX=1;exitY=0.3333333333333333;exitDx=0;exitDy=0;exitPerimeter=0;" parent="1" source="20" target="41" edge="1">
                    <mxGeometry width="50" height="50" relative="1" as="geometry"/>
                </mxCell>
                <mxCell id="103" value="" style="endArrow=none;html=1;entryX=0;entryY=0.5;entryDx=0;entryDy=0;exitX=1;exitY=0.3333333333333333;exitDx=0;exitDy=0;exitPerimeter=0;" parent="1" source="20" target="42" edge="1">
                    <mxGeometry width="50" height="50" relative="1" as="geometry"/>
                </mxCell>
                <mxCell id="104" value="" style="endArrow=none;html=1;entryX=0;entryY=0.5;entryDx=0;entryDy=0;exitX=1;exitY=0.3333333333333333;exitDx=0;exitDy=0;exitPerimeter=0;" parent="1" source="20" target="43" edge="1">
                    <mxGeometry width="50" height="50" relative="1" as="geometry"/>
                </mxCell>
                <mxCell id="105" value="" style="endArrow=none;html=1;entryX=0;entryY=0.5;entryDx=0;entryDy=0;exitX=1;exitY=0.3333333333333333;exitDx=0;exitDy=0;exitPerimeter=0;" parent="1" source="20" target="61" edge="1">
                    <mxGeometry width="50" height="50" relative="1" as="geometry"/>
                </mxCell>
                <mxCell id="106" value="" style="endArrow=none;html=1;entryX=0;entryY=0.5;entryDx=0;entryDy=0;exitX=1;exitY=0.3333333333333333;exitDx=0;exitDy=0;exitPerimeter=0;" parent="1" source="20" target="71" edge="1">
                    <mxGeometry width="50" height="50" relative="1" as="geometry"/>
                </mxCell>
                <mxCell id="107" value="" style="endArrow=none;html=1;entryX=0;entryY=0.5;entryDx=0;entryDy=0;exitX=1;exitY=0.3333333333333333;exitDx=0;exitDy=0;exitPerimeter=0;" parent="1" source="20" target="72" edge="1">
                    <mxGeometry width="50" height="50" relative="1" as="geometry"/>
                </mxCell>
                <mxCell id="152" value="" style="endArrow=none;html=1;entryX=0;entryY=0.5;entryDx=0;entryDy=0;exitX=1;exitY=0.3333333333333333;exitDx=0;exitDy=0;exitPerimeter=0;" parent="1" source="20" target="150" edge="1">
                    <mxGeometry width="50" height="50" relative="1" as="geometry">
                        <Array as="points">
                            <mxPoint x="250" y="230"/>
                        </Array>
                    </mxGeometry>
                </mxCell>
                <mxCell id="80" value="" style="endArrow=none;html=1;entryX=0;entryY=0.3333333333333333;entryDx=0;entryDy=0;entryPerimeter=0;exitX=1;exitY=0.5;exitDx=0;exitDy=0;" parent="1" source="73" target="153" edge="1">
                    <mxGeometry width="50" height="50" relative="1" as="geometry">
                        <mxPoint x="1189.996666666667" y="610" as="targetPoint"/>
                    </mxGeometry>
                </mxCell>
                <mxCell id="81" value="" style="endArrow=none;html=1;entryX=0;entryY=0.3333333333333333;entryDx=0;entryDy=0;entryPerimeter=0;exitX=1;exitY=0.5;exitDx=0;exitDy=0;" parent="1" source="74" target="153" edge="1">
                    <mxGeometry width="50" height="50" relative="1" as="geometry">
                        <mxPoint x="1189.996666666667" y="610" as="targetPoint"/>
                    </mxGeometry>
                </mxCell>
                <mxCell id="153" value="Email System" style="shape=umlActor;verticalLabelPosition=bottom;verticalAlign=top;html=1;outlineConnect=0;" parent="1" vertex="1">
                    <mxGeometry x="1190" y="570" width="40" height="80" as="geometry"/>
                </mxCell>
                <mxCell id="205" value="" style="ellipse;whiteSpace=wrap;html=1;fillColor=#E6E6E6;strokeColor=light-dark(#767f71, #446e2c);" parent="1" vertex="1">
                    <mxGeometry x="1170" y="250" width="40" height="20" as="geometry"/>
                </mxCell>
                <mxCell id="206" value="Common" style="text;html=1;strokeColor=none;fillColor=none;align=left;verticalAlign=middle;whiteSpace=wrap;rounded=0;" parent="1" vertex="1">
                    <mxGeometry x="1220" y="250" width="130" height="20" as="geometry"/>
                </mxCell>
            </root>
        </mxGraphModel>
    </diagram>
</mxfile>